<?xml version="1.0" encoding="UTF-8" standalone="no"?>
<svg
   xmlns:dc="http://purl.org/dc/elements/1.1/"
   xmlns:cc="http://creativecommons.org/ns#"
   xmlns:rdf="http://www.w3.org/1999/02/22-rdf-syntax-ns#"
   xmlns:svg="http://www.w3.org/2000/svg"
   xmlns="http://www.w3.org/2000/svg"
   xmlns:xlink="http://www.w3.org/1999/xlink"
   xmlns:sodipodi="http://sodipodi.sourceforge.net/DTD/sodipodi-0.dtd"
   xmlns:inkscape="http://www.inkscape.org/namespaces/inkscape"
   width="500mm"
   height="500mm"
   viewBox="0 0 500 500"
   version="1.1"
   id="svg58"
   inkscape:version="1.0.2-2 (e86c870879, 2021-01-15)"
   sodipodi:docname="min-max.svg">
  <animateTransform
     attributeName="transform"
     xlink:href="#pi-line-4"
     attributeType="XML"
     type="rotate"
     from="0 288 378"
     to="-120 288 378"
     dur="4s"
     begin="0; anim2.end + 0.1s"
     fill="freeze"
     id="anim1" />
  <animateTransform
     attributeName="transform"
     xlink:href="#pi-line-4"
     attributeType="XML"
     type="rotate"
     to="0 288 378"
     from="-120 288 378"
     dur="4s"
     begin="anim1.end + 0.1s"
     fill="freeze"
     id="anim2" />
	 
	 <animate
     xlink:href="#bag1"
     attributeName="opacity"
     to="0"
     dur="1s"
     begin="0; bg-anim8.end + 0s"
	 fill="freeze"
     id="bg-anim1" />
	 
	 <animate
     xlink:href="#bag2"
     attributeName="opacity"
     to="0"
     dur="1s"
     begin="bg-anim1.end + 0s"
	 fill="freeze"
     id="bg-anim2" />
	 
	 <animate
     xlink:href="#bag3"
     attributeName="opacity"
     to="0"
     dur="1s"
     begin="bg-anim2.end + 0s"
	 fill="freeze"
     id="bg-anim3" />
	 
	<animate
     xlink:href="#bag4"
     attributeName="opacity"
     to="0"
     dur="1s"
     begin="bg-anim3.end + 0s"
	 fill="freeze"
     id="bg-anim4" />
	 
	<animate
     xlink:href="#bag1"
     attributeName="opacity"
     to="1"
     dur="1s"
     begin="bg-anim4.end + 0s"
	 fill="freeze"
     id="bg-anim5" />
	 
	 <animate
     xlink:href="#bag2"
     attributeName="opacity"
     to="1"
     dur="1s"
     begin="bg-anim5.end + 0s"
	 fill="freeze"
     id="bg-anim6" />
	 
	 <animate
     xlink:href="#bag3"
     attributeName="opacity"
     to="1"
     dur="1s"
     begin="bg-anim6.end + 0s"
	 fill="freeze"
     id="bg-anim7" />
	 
	<animate
     xlink:href="#bag4"
     attributeName="opacity"
     to="1"
     dur="1s"
     begin="bg-anim7.end + 0s"
	 fill="freeze"
     id="bg-anim8" />
	 
  <animate
     xlink:href="#circle944"
     attributeName="r"
     to="20"
     dur="0.5s"
     begin="0"
     repeatCount="indefinite" />
  <animate
     xlink:href="#circle946"
     attributeName="r"
     to="20"
     dur="0.5s"
     begin="0"
     repeatCount="indefinite" />
  <animate
     xlink:href="#circle946"
     attributeName="fill"
     to="#ffffff"
     dur="0.5s"
     begin="0"
     repeatCount="indefinite" />
  <animate
     xlink:href="#circle948"
     attributeName="r"
     to="20"
     dur="0.5s"
     begin="0"
     repeatCount="indefinite" />
  <animate
     xlink:href="#circle948"
     attributeName="fill"
     to="#ffffff"
     dur="0.5s"
     begin="0"
     repeatCount="indefinite" />
  <animate
     xlink:href="#circle950"
     attributeName="r"
     to="20"
     dur="0.5s"
     begin="0"
     repeatCount="indefinite" />
  <animate
     xlink:href="#circle950"
     attributeName="fill"
     to="#ffffff"
     dur="0.5s"
     begin="0"
     repeatCount="indefinite" />
  <animate
     xlink:href="#circle952"
     attributeName="r"
     to="20"
     dur="0.5s"
     begin="0"
     repeatCount="indefinite" />
  <animate
     xlink:href="#circle952"
     attributeName="fill"
     to="#ffffff"
     dur="0.5s"
     begin="0"
     repeatCount="indefinite" />
  <animate
     xlink:href="#circle954"
     attributeName="r"
     to="20"
     dur="0.5s"
     begin="0"
     repeatCount="indefinite" />
  <animate
     xlink:href="#circle954"
     attributeName="fill"
     to="#ffffff"
     dur="0.5s"
     begin="0"
     repeatCount="indefinite" />
  <animate
     xlink:href="#circle956"
     attributeName="r"
     to="20"
     dur="0.5s"
     begin="0"
     repeatCount="indefinite" />
  <animate
     xlink:href="#circle956"
     attributeName="fill"
     to="#ffffff"
     dur="0.5s"
     begin="0"
     repeatCount="indefinite" />
  <animate
     xlink:href="#circle958"
     attributeName="r"
     to="20"
     dur="0.5s"
     begin="0"
     repeatCount="indefinite" />
  <animate
     xlink:href="#circle958"
     attributeName="fill"
     to="#ffffff"
     dur="0.5s"
     begin="0"
     repeatCount="indefinite" />
  <animate
     xlink:href="#circle960"
     attributeName="r"
     to="20"
     dur="0.5s"
     begin="0"
     repeatCount="indefinite" />
  <animate
     xlink:href="#circle960"
     attributeName="fill"
     to="#ffffff"
     dur="0.5s"
     begin="0"
     repeatCount="indefinite" />
  <defs
     id="defs52">
    <rect
       x="149.67857"
       y="370.41667"
       width="293.30952"
       height="74.083333"
       id="rect93" />
  </defs>
  <sodipodi:namedview
     id="base"
     pagecolor="#ffffff"
     bordercolor="#666666"
     borderopacity="1.0"
     inkscape:pageopacity="0.0"
     inkscape:pageshadow="2"
     inkscape:zoom="0.12374369"
     inkscape:cx="-470.33145"
     inkscape:cy="1085.9181"
     inkscape:document-units="mm"
     inkscape:current-layer="layer1"
     inkscape:document-rotation="0"
     showgrid="false"
     inkscape:window-width="1366"
     inkscape:window-height="741"
     inkscape:window-x="-9"
     inkscape:window-y="-9"
     inkscape:window-maximized="1"
     showguides="true"
     inkscape:guide-bbox="true">
    <sodipodi:guide
       position="288.66574,121.44528"
       orientation="1,0"
       id="guide186" />
  </sodipodi:namedview>
  <metadata
     id="metadata55">
    <rdf:RDF>
      <cc:Work
         rdf:about="">
        <dc:format>image/svg+xml</dc:format>
        <dc:type
           rdf:resource="http://purl.org/dc/dcmitype/StillImage" />
        <dc:title />
      </cc:Work>
    </rdf:RDF>
  </metadata>
  <g
     inkscape:label="Layer 1"
     inkscape:groupmode="layer"
     id="layer1">
    <g
       id="g342"
       transform="matrix(0.49536085,0,0,0.49536085,-95.301938,350.99358)">
      <g
         id="g368"
         transform="translate(-315.71429,270)">
        <g
           id="g892"
           transform="translate(-94.285715,-8.5714287)">
          <g
             id="g830"
             transform="matrix(1.454608,0,0,1.454608,522.48196,44.137706)">
            <g
               id="g1027"
               transform="matrix(1.2738842,0,0,1.2738842,161.18747,-969.63937)">
              <path
                 d="M 517.71667,808 A 226.92219,226.92219 0 0 0 550,691 C 550,565.079 447.9209,463 322,463 196.0791,463 94,565.079 94,691 A 226.92219,226.92219 0 0 0 126.28333,808 Z"
                 fill="#3f3d56"
                 id="path942"
                 transform="translate(-94,-53)" />
              <circle
                 cx="228"
                 cy="623"
                 fill="#f50057"
                 id="circle944"
                 r="22"
                 style="fill:#ffffff" />
              <circle
                 cx="53"
                 cy="659"
                 r="11"
                 fill="#f50057"
                 id="circle946" />
              <circle
                 cx="59.45435"
                 cy="563.72638"
                 r="11"
                 fill="#f50057"
                 id="circle948" />
              <circle
                 cx="114.05636"
                 cy="485.38516"
                 r="11"
                 fill="#f50057"
                 id="circle950" />
              <circle
                 cx="201.20813"
                 cy="446.35574"
                 r="11"
                 fill="#f50057"
                 id="circle952" />
              <circle
                 cx="296.0134"
                 cy="457.78748"
                 r="11"
                 fill="#f50057"
                 id="circle954" />
              <circle
                 cx="371.38962"
                 cy="516.41473"
                 r="11"
                 fill="#f50057"
                 id="circle956" />
              <circle
                 cx="405.80435"
                 cy="605.48969"
                 r="11"
                 fill="#f50057"
                 id="circle958" />
              <circle
                 cx="389.42657"
                 cy="699.56677"
                 r="11"
                 fill="#f50057"
                 id="circle960" />
            </g>
          </g>
        </g>
      </g>
    </g>
    <line
       x1="410.866"
       y1="407.18253"
       x2="288.66574"
       y2="378.55472"
       fill="none"
       stroke="#f50057"
       stroke-miterlimit="10"
       stroke-width="2.68709"
       id="pi-line-4"
       style="fill:#ff0000;fill-opacity:1;stroke:#ffffff;stroke-width:11.2978;stroke-miterlimit:10;stroke-dasharray:none;stroke-opacity:1" />
    <text
       xml:space="preserve"
       id="text91"
       style="font-family:Impact;font-size:1.41111111px;line-height:1.25;letter-spacing:0px;word-spacing:0px;-inkscape-font-specification:Impact;text-align:center;writing-mode:lr;white-space:pre;shape-inside:url(#rect93);" />
    <g
       style="fill:none"
       id="g221"
       transform="matrix(1.0907665,0,0,1.0907665,7.1351102,120.48464)">
      <path
         fill-rule="evenodd"
         clip-rule="evenodd"
         d="M 177.419,136.358 184.804,140.412 C 184.804,140.412 187.112,162.459 187.736,163.635 189.619,167.156 193.311,173.066 189.637,176.984 188.56,178.134 187.22,178.505 184.741,179.048 183.446,179.328 181.555,176.324 182.967,176.025 183.256,175.962 183.89,176.831 184.17,176.794 185.311,176.65 185.935,175.401 185.935,175.401 185.32,169.445 183.465,171.075 182.596,172.921 182.596,172.921 182.016,179.012 180.659,177.455 179.763,176.432 179.473,172.857 179.175,171.382 178.098,166.034 181.591,164.26 181.464,161.744 181.021,152.902 177.926,146.051 177.419,136.358 Z"
         fill="#f5ac83"
         id="path72" />
      <g
         id="bag3">
        <path
           fill-rule="evenodd"
           clip-rule="evenodd"
           d="M 163.4,194.668 C 163.4,194.668 162.278,194.723 161.97,196.334 161.662,197.954 156.567,255.342 156.567,255.342 156.567,255.342 155.68,258.491 160.821,258.609 176.252,258.971 191.673,259.333 207.104,259.686 212.244,259.803 211.502,256.618 211.502,256.618 211.502,256.618 209.095,199.049 208.869,197.42 208.633,195.791 207.52,195.691 207.52,195.691 192.814,195.356 178.107,195.012 163.4,194.668 Z"
           fill="#c4393e"
           id="path74" />
        <path
           fill-rule="evenodd"
           clip-rule="evenodd"
           d="M 175.084,194.94 C 175.084,194.94 173.961,194.994 173.654,196.605 173.346,198.225 168.251,255.613 168.251,255.613 168.251,255.613 167.364,258.763 172.504,258.88 187.935,259.242 203.357,259.604 218.788,259.957 223.928,260.075 223.186,256.889 223.186,256.889 223.186,256.889 220.779,199.32 220.552,197.691 220.317,196.062 219.204,195.963 219.204,195.963 204.497,195.628 189.79,195.284 175.084,194.94 Z"
           fill="#e94c48"
           id="path76" />
      </g>
      <path
         fill-rule="evenodd"
         clip-rule="evenodd"
         d="M 199.085,201.185 C 199.103,201.456 199.338,201.701 199.601,201.728 199.863,201.755 200.063,201.556 200.044,201.275 200.044,201.212 198.795,180.957 189.799,176.622 189.691,176.849 189.519,177.129 189.284,177.41 197.845,181.157 199.076,201.13 199.085,201.185 Z M 185.609,175.844 C 175.437,176.604 176.532,196.85 176.541,196.913 176.55,197.185 176.776,197.438 177.048,197.474 177.31,197.51 177.518,197.311 177.5,197.031 177.5,196.976 176.514,178.858 184.921,176.984 L 184.74,176.93 C 184.722,176.921 185.075,176.659 185.609,175.844 Z"
         fill="#ae6d6d"
         id="path78" />
      <g
         id="bag1">
        <path
           fill-rule="evenodd"
           clip-rule="evenodd"
           d="M 70.3815,193.854 C 70.3815,193.854 71.3318,194.56 70.653,196.153 69.9743,197.746 40.6785,250.844 40.6785,250.844 40.6785,250.844 39.6015,254.111 35.0492,251.197 L 22.8042,243.359 C 27.3293,246.228 28.3973,242.979 28.3973,242.979 28.3973,242.979 57.684,189.881 58.3718,188.288 59.0325,186.75 58.1636,186.035 58.1093,185.998 Z"
           fill="#346c93"
           id="path80" />
        <path
           fill-rule="evenodd"
           clip-rule="evenodd"
           d="M 58.1001,185.998 C 58.1001,185.998 59.0504,186.704 58.3716,188.297 57.6929,189.89 28.3971,242.988 28.3971,242.988 28.3971,242.988 27.3201,246.255 22.7588,243.341 9.07478,234.589 17.0752,239.703 3.40025,230.951 -1.15204,228.037 1.36394,225.684 1.36394,225.684 1.36394,225.684 37.3026,176.84 38.461,175.554 39.6195,174.269 40.6603,174.839 40.6603,174.839 53.6927,183.184 51.5749,181.826 58.1001,185.998 Z"
           fill="#5287b2"
           id="path82" />
      </g>
      <path
         fill-rule="evenodd"
         clip-rule="evenodd"
         d="M 142.213,68.1637 C 151.798,72.3902 172.36,97.7129 178.55,108.066 180.044,110.564 181.555,114.058 182.333,118.673 184.207,129.787 186.216,155.454 187.492,161.707 188.759,167.961 181.483,162.078 181.274,160.938 179.763,152.82 174.089,122.628 172.315,118.927 170.849,115.877 152.866,98.8441 147.191,94.7534 142.856,91.6311 136.584,79.558 142.213,68.1637 Z"
         fill="#f5ac83"
         id="path84" />
      <path
         fill-rule="evenodd"
         clip-rule="evenodd"
         d="M 142.213,68.1637 C 143.58,68.7701 145.173,69.8018 146.92,71.1593 148.838,74.8881 154.422,85.676 156.73,89.3594 159.545,93.8393 167.672,97.2784 167.672,97.2784 L 169.482,95.2964 C 171.039,97.2875 172.505,99.2243 173.817,101.034 173.509,102.012 173.229,102.98 173.147,103.532 173.012,104.464 176.776,126.81 179.401,141.951 180.831,150.232 181.311,161.237 181.274,160.938 181.139,159.789 174.089,122.628 172.315,118.927 170.849,115.877 152.866,98.8532 147.191,94.7625 142.856,91.6311 136.584,79.558 142.213,68.1637 Z"
         fill="#f08a71"
         id="path86" />
      <path
         fill-rule="evenodd"
         clip-rule="evenodd"
         d="M 168.776,94.2467 C 168.776,94.2467 169.645,94.2105 169.98,95.4323 170.323,96.6541 177.926,140.421 177.926,140.421 177.926,140.421 178.804,142.783 174.867,143.209 163.038,144.476 128.991,147.806 117.162,149.082 113.225,149.508 113.587,147.01 113.587,147.01 113.587,147.01 111.732,102.627 111.804,101.36 111.877,100.093 112.727,99.9393 112.727,99.9393 124.013,98.7266 157.508,95.4594 168.776,94.2467 Z"
         fill="#5287b2"
         id="path88" />
      <path
         fill-rule="evenodd"
         clip-rule="evenodd"
         d="M 164.74,94.681 C 164.74,94.681 165.609,94.6448 165.943,95.8666 166.287,97.0884 173.89,140.856 173.89,140.856 173.89,140.856 174.767,143.218 170.831,143.643 159.002,144.91 124.955,148.241 113.126,149.517 109.189,149.942 109.551,147.444 109.551,147.444 109.551,147.444 107.696,103.062 107.768,101.795 107.841,100.528 108.691,100.374 108.691,100.374 119.977,99.1609 153.463,95.8847 164.74,94.681 Z"
         fill="#346c93"
         id="path90" />
      <path
         fill-rule="evenodd"
         clip-rule="evenodd"
         d="M 136.077,138.928 C 131.995,159.291 94.6177,336.124 96.6088,340.65 97.0161,341.582 97.0794,342.478 97.1428,343.093 97.2152,343.709 97.2876,349.374 97.2152,349.736 97.1428,350.098 97.0523,350.578 96.2558,350.578 95.4594,350.578 91.1153,350.578 90.2103,350.578 89.3052,350.578 88.898,349.962 88.9794,349.256 89.3143,346.451 90.8166,340.541 90.8166,340.541 95.8214,271.243 104.51,185.745 109.84,136.521 Z"
         fill="#f5ac83"
         id="path92" />
      <path
         fill-rule="evenodd"
         clip-rule="evenodd"
         d="M 125.208,128.04 C 125.208,128.04 146.757,340.116 146.711,341.22 146.657,342.324 145.716,343.953 145.716,343.953 L 146.087,346.632 C 146.087,346.632 151.182,350.207 154.069,350.677 156.956,351.148 161.11,351.356 162.477,350.94 163.844,350.523 163.672,349.691 163.672,349.691 163.672,349.691 156.06,345.093 154.06,342.36 152.069,339.627 147.336,125.805 147.336,125.063 147.336,124.33 125.208,128.04 125.208,128.04 Z"
         fill="#f5ac83"
         id="path94" />
      <path
         fill-rule="evenodd"
         clip-rule="evenodd"
         d="M 106.447,14.0159 C 106.447,14.0159 102.338,15.0205 100.401,16.7853 98.4645,18.5501 97.9938,40.307 92.1564,51.8008 92.1564,51.8008 91.9121,52.371 92.4641,53.1493 93.0252,53.9186 95.3874,53.6652 97.1069,52.4525 97.1069,52.4525 104.184,61.9643 115.922,61.4032 115.922,61.4032 117.361,61.4122 117.941,62.8422 117.941,62.8422 118.095,63.2766 118.601,62.9689 119.108,62.6702 118.502,61.4032 118.393,61.1226 118.393,61.1226 132.168,69.1774 146.521,58.1722 153.155,53.086 155.011,48.4251 155.083,44.8864 155.164,40.7686 152.848,38.1711 152.848,38.1711 152.848,38.1711 156.477,39.0037 157.146,36.8407 157.825,34.6777 155.047,34.7411 151.155,23.9531 147.273,13.1743 140.259,1.08308 121.199,0.657715 Z"
         fill="#39393a"
         id="path96" />
      <path
         fill-rule="evenodd"
         clip-rule="evenodd"
         d="M 104.447,14.6313 C 103.125,15.102 101.451,15.835 100.401,16.7853 98.4645,18.5501 97.9938,40.307 92.1564,51.8008 92.1564,51.8008 91.9121,52.371 92.4641,53.1493 93.0252,53.9186 95.3874,53.6652 97.1069,52.4525 97.1069,52.4525 104.184,61.9643 115.922,61.4032 115.922,61.4032 117.361,61.4122 117.941,62.8422 117.941,62.8422 118.095,63.2766 118.601,62.9689 119.108,62.6702 118.502,61.4032 118.393,61.1226 118.393,61.1226 132.168,69.1774 146.521,58.1722 153.155,53.086 155.011,48.4251 155.083,44.8864 155.164,40.7686 152.848,38.1711 152.848,38.1711 152.848,38.1711 156.477,39.0037 157.146,36.8407 157.825,34.6777 155.047,34.7411 151.155,23.9531 150.947,23.3649 150.721,22.7675 150.485,22.1702 145.481,26.3153 136.123,31.3563 123.307,26.5325 110.682,21.772 106.103,17.265 104.447,14.6313 Z"
         fill="#2c2d2c"
         id="path98" />
      <path
         fill-rule="evenodd"
         clip-rule="evenodd"
         d="M 111.967,65.2405 C 113.099,65.0776 114.212,64.9781 115.262,64.9509 120.411,65.0324 130.484,64.1273 136.991,65.5211 138.928,65.9374 145.698,69.2769 147.164,74.327 148.422,78.6621 152.721,85.8299 152.92,89.0337 153.119,92.2375 149.399,102.338 149.399,102.338 148.358,107.949 147.444,118.447 147.354,126.167 147.263,134.493 151.689,141.172 155.436,165.771 159.192,190.361 160.54,326.938 160.649,329.536 160.757,332.142 159.237,332.866 159.237,332.866 137.978,342.451 81.495,334.74 80.246,332.034 78.9971,329.328 82.7439,300.141 85.6671,260.962 88.5904,221.774 96.1021,171.292 101.297,154.458 106.492,137.625 108.42,126.728 108.429,126.61 108.646,111.976 106.591,106.745 102.682,98.6542 99.496,91.3234 101.433,70.8426 103.768,68.7158 106.066,66.6343 111.786,65.2858 111.967,65.2405 Z"
         fill="#fde6e6"
         id="path100" />
      <path
         fill-rule="evenodd"
         clip-rule="evenodd"
         d="M 103.324,147.661 C 107.008,134.756 108.428,126.728 108.437,126.629 108.655,111.994 106.6,106.763 102.691,98.6722 102.618,98.5183 102.555,98.3554 102.5,98.1835 113.424,98.8713 124.212,99.541 129.724,99.8487 129.724,99.8487 130.584,99.9573 130.719,101.215 130.855,102.473 131.28,146.892 131.28,146.892 131.28,146.892 131.769,149.363 127.814,149.146 122.637,148.865 113.252,148.277 103.324,147.661 Z"
         fill="#fad0be"
         id="path104" />
      <path
         fill-rule="evenodd"
         clip-rule="evenodd"
         d="M 111.967,65.2405 C 113.099,65.0776 114.212,64.978 115.262,64.9509 116.836,64.978 118.882,64.9056 121.144,64.8423 L 121.923,65.5392 C 121.923,65.5392 112.166,74.3813 111.958,75.8927 111.75,77.4041 116.094,91.6764 117.379,94.0566 118.664,96.4368 152.721,91.251 152.721,91.251 L 151.879,94.7535 C 150.838,98.4731 149.408,102.365 149.408,102.365 149.336,102.727 149.272,103.116 149.209,103.523 149.209,103.523 130.882,107.713 124.429,111.777 117.968,115.841 119.922,145.073 119.922,145.073 119.922,145.073 109.198,161.716 104.655,186.197 100.528,208.398 95.3871,281.759 109.379,336.894 93.7219,335.726 80.8524,333.346 80.2641,332.061 79.0152,329.355 82.762,300.168 85.6852,260.989 88.6085,221.801 96.1202,171.319 101.315,154.485 106.51,137.652 108.438,126.755 108.447,126.638 108.664,112.003 106.609,106.772 102.7,98.6813 99.514,91.3505 101.451,70.8698 103.786,68.743 106.066,66.6342 111.786,65.2857 111.967,65.2405 Z"
         fill="#fad0be"
         id="path106" />
      <path
         fill-rule="evenodd"
         clip-rule="evenodd"
         d="M 111.967,65.2405 C 113.099,65.0776 114.203,64.9781 115.253,64.9509 120.402,65.0324 130.475,64.1273 136.982,65.5211 137.534,65.6387 138.476,65.9917 139.58,66.5619 140.439,73.1052 135.489,77.576 126.149,75.7479 118.99,74.3451 113.976,68.1457 111.967,65.2405 Z"
         fill="#494949"
         id="path108" />
      <path
         fill-rule="evenodd"
         clip-rule="evenodd"
         d="M 120.891,44.642 120.746,49.7463 C 120.746,49.7463 120.013,60.1632 119.905,61.747 119.823,62.8873 119.163,64.3354 115.823,64.8874 115.696,64.9055 115.38,64.8422 115.443,64.9508 120.384,73.3042 138.557,76.3541 136.901,65.5119 136.892,65.4757 136.838,65.4757 136.802,65.4576 132.765,63.2493 133.733,53.466 135.942,51.0315 137.842,48.9318 120.891,44.642 120.891,44.642 Z"
         fill="#ffbcb5"
         id="path110" />
      <path
         fill-rule="evenodd"
         clip-rule="evenodd"
         d="M 107.85,38.4879 C 110.492,38.0988 112.954,39.936 113.343,42.5786 113.732,45.2213 111.895,47.683 109.243,48.0722 106.601,48.4613 104.139,46.6241 103.75,43.9724 103.361,41.3297 105.198,38.8771 107.85,38.4879 Z"
         fill="#ffbcb5"
         id="path112" />
      <path
         fill-rule="evenodd"
         clip-rule="evenodd"
         d="M 140.684,33.7092 C 143.336,33.3201 145.788,35.1573 146.177,37.8 146.567,40.4426 144.729,42.9043 142.078,43.2935 139.435,43.6826 136.973,41.8454 136.584,39.1937 136.204,36.551 138.032,34.0984 140.684,33.7092 Z"
         fill="#ffbcb5"
         id="path114" />
      <path
         fill-rule="evenodd"
         clip-rule="evenodd"
         d="M 119.642,12.0158 C 128.674,10.7035 137.136,17.0115 138.449,26.0437 L 140.621,40.9676 C 141.933,49.9998 135.625,58.4618 126.593,59.7741 117.561,61.0864 109.099,54.7783 107.786,45.7462 L 105.614,30.8223 C 104.293,21.7991 110.61,13.3371 119.642,12.0158 Z"
         fill="#ffd6bf"
         id="path116" />
      <path
         fill-rule="evenodd"
         clip-rule="evenodd"
         d="M 134.15,17.1383 C 136.385,19.5275 137.942,22.5865 138.449,26.0528 L 140.621,40.9767 C 141.77,48.8685 137.091,56.335 129.86,58.9596 131.932,57.9369 138.485,51.7646 137.933,46.0811 137.381,40.3884 135.335,35.9176 129.941,35.2026 124.547,34.4876 110.203,30.406 108.347,30.5689 107.56,30.6413 106.601,31.1571 105.741,31.7273 L 105.614,30.8313 C 105.044,26.9216 105.904,23.1205 107.804,19.9529 111.198,18.179 114.194,16.6767 115.316,16.2875 117.144,15.645 126.285,16.2061 134.15,17.1383 Z"
         fill="#ffd0c6"
         id="path118" />
      <path
         fill-rule="evenodd"
         clip-rule="evenodd"
         d="M 109.135,35.5194 113.678,34.8587 C 114.158,34.7863 114.61,35.1212 114.674,35.6008 114.746,36.0805 114.411,36.533 113.931,36.5964 L 109.388,37.257 C 108.909,37.3295 108.456,36.9946 108.384,36.5059 108.32,36.0443 108.655,35.5918 109.135,35.5194 Z"
         fill="#2c2d2c"
         id="path120" />
      <path
         fill-rule="evenodd"
         clip-rule="evenodd"
         d="M 127.48,32.8495 132.023,32.1888 C 132.503,32.1164 132.955,32.4513 133.027,32.9309 133.1,33.4106 132.765,33.8631 132.285,33.9355 L 127.742,34.5962 C 127.262,34.6686 126.81,34.3337 126.747,33.845 126.665,33.3744 127,32.9219 127.48,32.8495 Z"
         fill="#2c2d2c"
         id="path122" />
      <path
         fill-rule="evenodd"
         clip-rule="evenodd"
         d="M 127.072,47.339 C 127.461,49.9998 125.615,52.4705 122.954,52.8597 120.293,53.2489 117.814,51.4026 117.434,48.7418 H 117.443 C 117.379,48.2803 117.696,47.8549 118.158,47.7915 L 126.122,46.6331 C 126.565,46.5607 127,46.8775 127.072,47.339 Z"
         fill="#ffffff"
         id="path124" />
      <path
         fill-rule="evenodd"
         clip-rule="evenodd"
         d="M 111.868,45.701 C 113.18,45.5109 114.393,46.416 114.592,47.7282 114.782,49.0405 113.877,50.2533 112.565,50.4524 111.252,50.6424 110.031,49.7374 109.841,48.4251 109.651,47.1128 110.556,45.891 111.868,45.701 Z"
         fill="#ffb3ab"
         id="path126" />
      <path
         fill-rule="evenodd"
         clip-rule="evenodd"
         d="M 132.303,42.7233 C 133.616,42.5333 134.838,43.4383 135.028,44.7506 135.218,46.0629 134.313,47.2847 133,47.4747 131.688,47.6648 130.466,46.7598 130.276,45.4475 130.086,44.1352 130.991,42.9134 132.303,42.7233 Z"
         fill="#ffb3ab"
         id="path128" />
      <path
         fill-rule="evenodd"
         clip-rule="evenodd"
         d="M 122.212,32.2522 C 122.212,32.2522 122.855,32.225 122.955,31.7816 123.054,31.3381 121.887,29.2113 121.887,29.2113 121.887,29.2113 130.439,36.4877 138.847,34.37 L 140.114,37.4742 C 139.607,33.9899 142.177,33.7183 142.177,33.7183 142.177,33.7183 143.68,18.8306 142.168,12.6312 140.657,6.4227 124.43,-0.681773 117.235,0.721021 110.04,2.12381 102.664,12.0248 102.519,14.8033 101.895,26.2971 115.343,32.5056 122.212,32.2522 Z"
         fill="#39393a"
         id="path130" />
      <path
         fill-rule="evenodd"
         clip-rule="evenodd"
         d="M 122.213,32.2522 C 122.213,32.2522 122.855,32.2251 122.955,31.7816 123.054,31.3381 121.887,29.2113 121.887,29.2113 121.887,29.2113 130.439,36.4877 138.847,34.37 L 140.114,37.4742 C 139.607,33.9899 142.178,33.7184 142.178,33.7184 142.178,33.7184 142.485,30.6865 142.675,26.7949 137.634,28.7407 131.118,29.4647 123.317,26.5234 103.623,19.1112 103.497,12.2964 103.497,12.2511 102.89,13.319 102.546,14.2241 102.51,14.8033 101.895,26.2971 115.343,32.5056 122.213,32.2522 Z"
         fill="#2c2d2c"
         id="path132" />
      <path
         fill-rule="evenodd"
         clip-rule="evenodd"
         d="M 147.526,15.8351 C 146.902,14.4594 146.404,13.9707 145.942,13.2648 139.01,13.9617 118.656,15.9075 112.737,2.58545 109.959,4.305 107.406,6.84813 105.542,9.2374 105.904,9.57226 106.284,9.91617 106.682,10.2601 113.742,16.4052 131.263,21.9621 147.526,15.8351 Z"
         fill="#494949"
         id="path134" />
      <path
         fill-rule="evenodd"
         clip-rule="evenodd"
         d="M 112.284,38.9222 C 111.433,39.0942 110.872,39.9268 111.044,40.7775 L 111.451,42.8048 C 111.623,43.6555 112.456,44.2166 113.307,44.0447 114.157,43.8727 114.719,43.0401 114.547,42.1894 L 114.139,40.1712 C 113.976,39.3114 113.135,38.7503 112.284,38.9222 Z"
         fill="#2c2d2c"
         id="path136" />
      <path
         fill-rule="evenodd"
         clip-rule="evenodd"
         d="M 129.471,36.0804 C 128.62,36.2524 128.059,37.085 128.231,37.9448 L 128.638,39.963 C 128.81,40.8137 129.643,41.3749 130.493,41.2029 131.344,41.0309 131.905,40.1983 131.733,39.3385 L 131.326,37.3203 C 131.163,36.4696 130.321,35.9085 129.471,36.0804 Z"
         fill="#2c2d2c"
         id="path138" />
      <path
         fill-rule="evenodd"
         clip-rule="evenodd"
         d="M 104.04,68.4985 C 94.6997,73.9287 76.5539,102.265 71.4043,113.587 70.1554,116.329 69.015,120.076 68.7526,124.9 68.1191,136.511 68.3453,161.119 68.834,165.97 69.3228,170.821 73.0515,171.617 73.6578,170.595 74.3728,169.382 77.6671,127.859 79.0609,124.013 80.2464,120.737 96.6817,101.188 102.021,96.3462 106.094,92.6266 111.117,79.5308 104.04,68.4985 Z"
         fill="#f5ac83"
         id="path140" />
      <path
         fill-rule="evenodd"
         clip-rule="evenodd"
         d="M 98.6632,205.529 C 98.6994,205.818 98.9618,206.018 99.2424,205.981 99.532,205.945 99.7311,205.683 99.6949,205.402 99.6859,205.303 95.6223,171.265 78.8612,173.762 62.1272,176.26 65.5573,206.905 65.5663,206.986 65.5935,207.276 65.8469,207.475 66.1365,207.448 66.4261,207.42 66.6252,207.158 66.598,206.877 66.589,206.814 64.5617,188.587 71.2499,179.573 73.0961,177.084 75.6121,175.301 79.015,174.794 94.7082,172.45 98.6451,205.438 98.6632,205.529 Z"
         fill="#a4a4a4"
         id="path142" />
      <g
         id="bag4">
        <path
           fill-rule="evenodd"
           clip-rule="evenodd"
           d="M 186.605,197.094 C 186.605,197.094 185.782,197.909 186.669,199.357 187.556,200.805 223.377,248.183 223.377,248.183 223.377,248.183 224.879,251.197 228.888,247.739 L 239.667,238.427 C 235.685,241.848 234.192,238.843 234.192,238.843 234.192,238.843 198.371,191.465 197.484,190.017 196.633,188.614 197.375,187.808 197.42,187.754 Z"
           fill="#dda100"
           id="path148" />
        <path
           fill-rule="evenodd"
           clip-rule="evenodd"
           d="M 194.633,190.162 C 191.764,192.641 193.809,190.976 194.696,192.424 195.574,193.872 231.404,241.25 231.404,241.25 231.404,241.25 232.906,244.273 236.916,240.807 248.952,230.408 244.699,234.083 256.736,223.684 260.745,220.218 257.976,218.299 257.976,218.299 257.976,218.299 216.299,175.971 214.996,174.894 213.693,173.808 212.76,174.505 212.76,174.505 201.294,184.415 197.502,187.682 194.633,190.162 Z"
           fill="#fdcb20"
           id="path150" />
      </g>
      <path
         fill-rule="evenodd"
         clip-rule="evenodd"
         d="M 94.8896,205.529 C 94.9258,205.818 95.1882,206.018 95.4688,205.981 95.7584,205.945 95.9575,205.683 95.9213,205.402 95.9123,205.303 91.8487,171.265 75.0876,173.762 58.3626,176.26 61.7837,206.905 61.7927,206.986 61.8199,207.276 62.0733,207.475 62.3629,207.448 62.6525,207.42 62.8606,207.158 62.8244,206.877 62.8154,206.796 59.503,177.138 75.2324,174.785 90.9436,172.45 94.8805,205.438 94.8896,205.529 Z"
         fill="#a4a4a4"
         id="path152" />
      <path
         fill-rule="evenodd"
         clip-rule="evenodd"
         d="M 211.692,182.677 C 211.909,182.822 212.199,182.758 212.344,182.541 212.489,182.324 212.425,182.034 212.208,181.889 212.163,181.862 199.719,173.618 191.211,172.477 191.293,172.866 191.248,173.228 191.22,173.373 199.348,174.495 211.647,182.65 211.692,182.677 Z M 185.564,173.355 C 185.718,173.771 185.79,174.088 185.827,174.323 185.121,174.876 185.003,175.373 185.293,175.871 185.899,176.894 187.863,178.061 190.225,179.455 194.433,181.944 199.854,185.148 201.683,190.062 201.773,190.306 201.646,190.578 201.402,190.668 201.158,190.759 200.886,190.632 200.796,190.388 199.085,185.79 193.827,182.677 189.745,180.26 187.275,178.794 185.211,177.582 184.478,176.342 183.863,175.31 184.089,174.332 185.564,173.355 Z"
         fill="#ae6d6d"
         id="path154" />
      <g
         id="bag2">
        <path
           fill-rule="evenodd"
           clip-rule="evenodd"
           d="M 88.2192,267.487 C 88.4817,264.274 88.7351,260.989 88.9795,257.64 90.337,239.404 92.5996,218.95 95.188,199.99 L 112.8,199.637 C 112.8,199.637 113.985,199.691 114.302,201.402 114.619,203.103 119.778,263.523 119.778,263.523 119.778,263.523 120.701,266.835 115.289,266.953 Z"
           fill="#fad0be"
           id="path102" />
        <path
           fill-rule="evenodd"
           clip-rule="evenodd"
           d="M 109.487,195.365 C 109.487,195.365 110.664,195.42 110.99,197.121 111.306,198.823 116.465,259.242 116.465,259.242 116.465,259.242 117.388,262.564 111.976,262.672 95.7399,262.998 79.5037,263.324 63.2584,263.65 57.8464,263.758 58.6337,260.41 58.6337,260.41 58.6337,260.41 61.3669,199.827 61.6113,198.117 61.8647,196.406 63.0412,196.298 63.0412,196.298 78.5353,195.981 94.0113,195.673 109.487,195.365 Z"
           fill="#dda100"
           id="path144" />
        <path
           fill-rule="evenodd"
           clip-rule="evenodd"
           d="M 102.917,195.492 C 102.917,195.492 104.093,195.546 104.419,197.257 104.736,198.958 109.895,259.378 109.895,259.378 109.895,259.378 110.818,262.7 105.406,262.808 89.1696,263.134 72.9334,263.46 56.6881,263.786 51.2761,263.894 52.0634,260.546 52.0634,260.546 52.0634,260.546 54.7966,199.963 55.041,198.253 55.2944,196.542 56.4709,196.433 56.4709,196.433 71.9559,196.117 87.441,195.809 102.917,195.492 Z"
           fill="#fdcb20"
           id="path146" />
        <path
           d="M 91.366,242.821 C 97.9948,237.106 98.7363,227.1 93.022,220.472 87.3078,213.843 77.3018,213.101 70.673,218.816 64.0441,224.53 63.3027,234.536 69.0169,241.165 74.7312,247.793 84.7372,248.535 91.366,242.821 Z"
           fill="#ffffff"
           id="path156" />
        <path
           fill-rule="evenodd"
           clip-rule="evenodd"
           d="M 81.0789,241.033 C 82.6536,239.639 87.7851,235.313 90.0296,230.779 93.8669,223.05 84.5632,217.692 80.0743,225.023 74.7075,218.308 66.1459,224.788 70.9154,231.974 73.721,236.2 79.3503,239.848 81.0789,241.033 Z"
           fill="#e94c48"
           id="path158" />
      </g>
      <path
         fill-rule="evenodd"
         clip-rule="evenodd"
         d="M 76.599,136.892 68.5533,143.743 C 68.5533,143.743 68.6076,163.997 68.0555,165.237 66.3903,168.939 63.0598,175.183 67.06,178.885 68.2275,179.971 69.6122,180.261 72.1644,180.632 73.5038,180.831 75.1962,177.654 73.7482,177.455 73.4495,177.41 72.8703,178.333 72.5897,178.315 71.4223,178.242 70.6982,177.021 70.6982,177.021 70.9064,170.948 72.8974,172.459 73.902,174.278 73.902,174.278 74.9066,180.405 76.1736,178.74 77.0063,177.645 77.0606,173.998 77.2506,172.486 77.9747,166.993 74.3093,165.445 74.255,162.884 74.1102,153.897 76.771,146.747 76.599,136.892 Z"
         fill="#f5ac83"
         id="path160" />
      <path
         fill-rule="evenodd"
         clip-rule="evenodd"
         d="M 40.7235,178.134 C 40.4611,178.251 40.3434,178.568 40.4701,178.821 40.5878,179.084 40.8955,179.193 41.1579,179.075 41.2213,179.048 63.8108,168.459 70.2274,173.654 71.3949,174.604 71.5669,175.31 71.0782,175.907 70.9424,176.07 70.7704,176.233 70.5713,176.396 70.6799,176.704 70.8157,177.093 70.9153,177.437 71.3225,177.156 71.6483,176.867 71.8927,176.568 72.7977,175.455 72.6438,174.269 70.8881,172.848 63.9556,167.237 40.7869,178.097 40.7235,178.134 Z M 66.6888,178.378 C 66.8517,178.876 66.9512,179.138 67.1684,179.31 66.6345,179.536 66.0824,179.763 65.5032,179.998 60.6522,181.98 54.4075,184.523 51.8011,189.275 51.6653,189.528 51.3485,189.618 51.0951,189.483 50.8417,189.347 50.7512,189.03 50.887,188.777 53.6745,183.7 60.1092,181.075 65.114,179.039 65.657,178.803 66.182,178.586 66.6888,178.378 Z"
         fill="#a4a4a4"
         id="path162" />
      <path
         fill-rule="evenodd"
         clip-rule="evenodd"
         d="M 74.4541,164.676 C 75.7301,152.802 77.9656,127 79.0516,124.004 80.2372,120.728 96.6725,101.179 102.012,96.3372 105.424,93.242 109.488,83.5944 106.61,74.0645 107.325,82.798 106.492,85.5945 99.4147,94.7805 92.2469,104.084 76.6985,123.597 76.6985,123.597 L 73.187,163.698 C 73.187,163.689 73.7481,164.051 74.4541,164.676 Z"
         fill="#f08a71"
         id="path164" />
    </g>
  </g>
</svg>
